<svg id="Group_90" data-name="Group 90" xmlns="http://www.w3.org/2000/svg" width="39.885" height="39.885" viewBox="0 0 39.885 39.885">
  <path id="Path_528" data-name="Path 528" d="M34.043,0H5.843A5.849,5.849,0,0,0,0,5.843v28.2a5.849,5.849,0,0,0,5.843,5.843h28.2a5.849,5.849,0,0,0,5.843-5.843V5.843A5.849,5.849,0,0,0,34.043,0Zm3.506,34.043a3.51,3.51,0,0,1-3.506,3.506H5.843a3.51,3.51,0,0,1-3.506-3.506V5.843A3.51,3.51,0,0,1,5.843,2.337h28.2a3.51,3.51,0,0,1,3.506,3.506Z" fill="#fff"/>
  <path id="Path_529" data-name="Path 529" d="M102.685,155.674A4.679,4.679,0,0,0,98.011,151H91v16.359h7.011a4.671,4.671,0,0,0,3.087-8.18A4.663,4.663,0,0,0,102.685,155.674Zm-2.337,7.011a2.34,2.34,0,0,1-2.337,2.337H93.337v-4.674h4.674A2.34,2.34,0,0,1,100.348,162.685Zm-7.011-4.674v-4.674h4.674a2.337,2.337,0,1,1,0,4.674Z" transform="translate(-83.911 -139.237)" fill="#fff"/>
  <path id="Path_530" data-name="Path 530" d="M276.843,211a5.843,5.843,0,1,0,5.06,8.765l-2.023-1.17a3.506,3.506,0,0,1-6.343-.583h9.148v-1.169A5.849,5.849,0,0,0,276.843,211Zm-3.305,4.674a3.506,3.506,0,0,1,6.611,0Z" transform="translate(-249.889 -194.563)" fill="#fff"/>
  <path id="Path_531" data-name="Path 531" d="M286,151h9.348v2.337H286Z" transform="translate(-263.72 -139.237)" fill="#fff"/>
</svg>
