<svg id="Group_85" data-name="Group 85" xmlns="http://www.w3.org/2000/svg" width="23.391" height="17.817" viewBox="0 0 23.391 17.817">
  <g id="Group_78" data-name="Group 78" transform="translate(1.175 0)">
    <g id="Group_77" data-name="Group 77">
      <path id="Path_515" data-name="Path 515" d="M45.881,61H26.6a2.032,2.032,0,0,0-.881.206L36.2,71.681l2.348-2.256h0l8.218-8.218A2.032,2.032,0,0,0,45.881,61Z" transform="translate(-25.721 -61)"/>
    </g>
  </g>
  <g id="Group_80" data-name="Group 80" transform="translate(15.451 1.175)">
    <g id="Group_79" data-name="Group 79">
      <path id="Path_516" data-name="Path 516" d="M345.947,86.728l-7.734,7.733,7.733,7.733a2.032,2.032,0,0,0,.206-.881V87.608A2.032,2.032,0,0,0,345.947,86.728Z" transform="translate(-338.213 -86.728)"/>
    </g>
  </g>
  <g id="Group_82" data-name="Group 82" transform="translate(0 1.175)">
    <g id="Group_81" data-name="Group 81">
      <path id="Path_517" data-name="Path 517" d="M.206,86.721A2.032,2.032,0,0,0,0,87.6v13.705a2.032,2.032,0,0,0,.206.881L7.94,94.454Z" transform="translate(0 -86.721)"/>
    </g>
  </g>
  <g id="Group_84" data-name="Group 84" transform="translate(1.175 9.878)">
    <g id="Group_83" data-name="Group 83">
      <path id="Path_518" data-name="Path 518" d="M39.021,277.211l-2.348,2.257a.685.685,0,0,1-.969,0l-2.257-2.257-7.734,7.733a2.032,2.032,0,0,0,.881.206H45.874a2.032,2.032,0,0,0,.881-.206Z" transform="translate(-25.714 -277.211)"/>
    </g>
  </g>
</svg>
