<svg data-name="Group 85" xmlns="http://www.w3.org/2000/svg" width="23.391" height="17.817" viewBox="0 0 23.391 17.817">
	<g transform="translate(1.175 0)">
		<path d="M45.881,61H26.6a2.032,2.032,0,0,0-.881.206L36.2,71.681l2.348-2.256h0l8.218-8.218A2.032,2.032,0,0,0,45.881,61Z" transform="translate(-25.721 -61)"/>
	</g>

	<g transform="translate(15.451 1.175)">
		<path d="M345.947,86.728l-7.734,7.733,7.733,7.733a2.032,2.032,0,0,0,.206-.881V87.608A2.032,2.032,0,0,0,345.947,86.728Z" transform="translate(-338.213 -86.728)"/>
	</g>

	<g transform="translate(0 1.175)">
		<path d="M.206,86.721A2.032,2.032,0,0,0,0,87.6v13.705a2.032,2.032,0,0,0,.206.881L7.94,94.454Z" transform="translate(0 -86.721)"/>
	</g>

	<g transform="translate(1.175 9.878)">
		<path d="M39.021,277.211l-2.348,2.257a.685.685,0,0,1-.969,0l-2.257-2.257-7.734,7.733a2.032,2.032,0,0,0,.881.206H45.874a2.032,2.032,0,0,0,.881-.206Z" transform="translate(-25.714 -277.211)"/>
	</g>
</svg>
