<svg xmlns="http://www.w3.org/2000/svg" width="39.906" height="39.906" viewBox="0 0 39.906 39.906">
	<path d="M5.846,39.906H18.862V25.721H14.185V21.044h4.677V15.2a5.852,5.852,0,0,1,5.846-5.846h5.846V14.03H25.877a2.341,2.341,0,0,0-2.338,2.338v4.677h6.8l-.779,4.677H23.538V39.906H34.061a5.852,5.852,0,0,0,5.846-5.846V5.846A5.852,5.852,0,0,0,34.061,0H5.846A5.852,5.852,0,0,0,0,5.846V34.061A5.852,5.852,0,0,0,5.846,39.906ZM2.338,5.846A3.511,3.511,0,0,1,5.846,2.338H34.061a3.511,3.511,0,0,1,3.507,3.507V34.061a3.511,3.511,0,0,1-3.507,3.507H25.877V28.059h5.667L33.1,18.706H25.877V16.368h7.015V7.015H24.708A8.193,8.193,0,0,0,16.524,15.2v3.507H11.847v9.353h4.677v9.509H5.846a3.511,3.511,0,0,1-3.507-3.507Z" fill="#fff"/>
</svg>
