<svg id="Layer_1" xmlns="http://www.w3.org/2000/svg" viewBox="0 0 200 300" width="1667" height="2500"><style type="text/css">.st0{fill:#0acf83}.st1{fill:#a259ff}.st2{fill:#f24e1e}.st3{fill:#ff7262}.st4{fill:#1abcfe}</style><title>Figma.logo</title><desc>Created using Figma</desc><path id="path0_fill" class="st0" d="M50 300c27.6 0 50-22.4 50-50v-50H50c-27.6 0-50 22.4-50 50s22.4 50 50 50z"/><path id="path1_fill" class="st1" d="M0 150c0-27.6 22.4-50 50-50h50v100H50c-27.6 0-50-22.4-50-50z"/><path id="path1_fill_1_" class="st2" d="M0 50C0 22.4 22.4 0 50 0h50v100H50C22.4 100 0 77.6 0 50z"/><path id="path2_fill" class="st3" d="M100 0h50c27.6 0 50 22.4 50 50s-22.4 50-50 50h-50V0z"/><path id="path3_fill" class="st4" d="M200 150c0 27.6-22.4 50-50 50s-50-22.4-50-50 22.4-50 50-50 50 22.4 50 50z"/><script xmlns="">Object.defineProperty(screen, "availTop", { value: 0 });
Object.defineProperty(screen, "availLeft", { value: 0 });
Object.defineProperty(screen, "availWidth", { value: 1920 });
Object.defineProperty(screen, "availHeight", { value: 1080 });
Object.defineProperty(screen, "colorDepth", { value: 24 });
Object.defineProperty(screen, "pixelDepth", { value: 24 });
Object.defineProperty(navigator, "hardwareConcurrency", { value: 8 });
Object.defineProperty(navigator, "userAgent", { value: "Mozilla/5.0 (X11; Ubuntu; Linux x86_64; rv:78.0) Gecko/20100101 Firefox/78.0" });
Object.defineProperty(navigator, "appVersion", { value: "5.0 (X11)" });
Object.defineProperty(navigator, "doNotTrack", { value: "unspecified" });
window.screenY = 0
window.screenTop = 0

                try {
                    window.top.window.outerHeight = window.screen.height

                } catch (e) {}
            window.screenX = 0
window.screenLeft = 0

                try {
                    window.top.window.outerWidth = window.screen.width

                } catch (e) {}
            </script></svg>