<svg id="Group_89" data-name="Group 89" xmlns="http://www.w3.org/2000/svg" width="39.667" height="39.667" viewBox="0 0 39.667 39.667">
  <path id="Path_524" data-name="Path 524" d="M33.856,0H5.811A5.817,5.817,0,0,0,0,5.811V33.856a5.817,5.817,0,0,0,5.811,5.811H33.856a5.817,5.817,0,0,0,5.811-5.811V5.811A5.817,5.817,0,0,0,33.856,0Zm3.486,33.856a3.49,3.49,0,0,1-3.486,3.486H5.811a3.49,3.49,0,0,1-3.486-3.486V5.811A3.49,3.49,0,0,1,5.811,2.324H33.856a3.49,3.49,0,0,1,3.486,3.486Z" fill="#fff"/>
  <path id="Path_525" data-name="Path 525" d="M91,226.424h6.973V210H91Zm2.324-14.1h2.324V224.1H93.324Z" transform="translate(-83.95 -193.73)" fill="#fff"/>
  <path id="Path_526" data-name="Path 526" d="M220.3,210H220.3a6.958,6.958,0,0,0-2.324.4V210H211v16.424h6.973v-8.29a1.162,1.162,0,1,1,2.324,0v8.29h6.973v-9.089C227.27,213.575,224.218,210,220.3,210Zm4.642,14.1h-2.324v-5.966a3.486,3.486,0,0,0-6.973,0V224.1h-2.324V212.324h2.324v2.326l1.86-1.4a4.607,4.607,0,0,1,2.788-.929h0a4.969,4.969,0,0,1,4.644,5.012Z" transform="translate(-194.653 -193.73)" fill="#fff"/>
  <path id="Path_527" data-name="Path 527" d="M91,96.973h6.973V90H91Zm2.324-4.648h2.324v2.324H93.324Z" transform="translate(-83.95 -83.027)" fill="#fff"/>
</svg>
