<svg xmlns="http://www.w3.org/2000/svg" viewBox="0 0 261.2 314.2" style="enable-background:new 0 0 261.2 314.2;" xml:space="preserve">
	<style type="text/css">
		.st0{fill:#000;}
		.st1{fill:#000;}
	</style>

	<g class="st1">
		<path d="M82.6,76c-4.4,5.7-8.8,11.3-14.1,16.3c-2.6,2.5-5.4,4.9-8.5,7c-1.5,1-3.1,2-4.8,2.9c-0.8,0.4-1.8,0.9-2.5,1.3
		c-0.8,0.4-1.6,0.8-2.5,1.1c-3.6,1.5-7.2,2.6-10.9,3.4c-3.7,0.8-7.4,1.3-11,1.6c-7.4,0.6-14.7,0.5-21.8,0.4l4.9-3
		c-0.7,1.9-1,4-0.7,6.1c0.3,2.2,1.2,4.4,2.5,6.5c1.3,2.1,3,4,4.9,5.5c0.9,0.8,2,1.5,3,2.1c0.3,0.2,1.2,0.7,1.8,1l1.7,0.8
		c4.9,2.1,10.5,3.3,16.3,4.2l9,1.5c3,0.5,6.3,1.2,9.4,2c6.3,1.7,12.7,4.4,18,9c1.3,1.2,2.6,2.4,3.6,3.8l0.8,1l0.2,0.3l0.1,0.1
		l0.2,0.2l0.3,0.5c0.4,0.7,0.8,1.2,1.2,2c1.8,3.4,2.7,6.6,3.2,10c0.5,3.4,0.4,6.7-0.1,9.9c-0.5,3.2-1.5,6.3-2.6,9.3
		c-2.4,5.9-5.9,11.2-10.1,15.7c3.1-5.3,5.3-11,6.6-16.7c0.6-2.9,1-5.8,1-8.6c-0.1-2.8-0.2-5.7-1-8.3c-0.7-2.6-1.9-5.2-3.2-7
		c-0.4-0.5-0.9-1.2-1.3-1.8l-0.3-0.5l-0.2-0.2l-0.1-0.1c0.3,0.4,0.1,0.1,0.1,0.2l0,0l0,0l-0.7-0.7c-0.9-0.9-1.9-1.8-2.9-2.6
		c-4.3-3.1-9.6-4.8-15.1-6.1c-5.5-1.2-11.5-1.6-17.7-2.5c-6.2-0.9-12.7-2-19.1-4.7l-2.5-1.1c-0.8-0.4-1.2-0.6-2.2-1.2
		c-1.6-0.9-3.1-2-4.5-3.2c-2.8-2.4-5.1-5.1-7-8.3c-1.9-3.1-3.3-6.7-3.7-10.6c-0.5-3.9,0-8.1,1.8-11.8l1.6-3.2l3.3,0.2
		c7.1,0.5,14,0.9,20.9,0.8c3.4,0,6.8-0.2,10.1-0.6c3.3-0.4,6.7-1.1,9.8-2c0.8-0.2,1.6-0.5,2.5-0.8c0.9-0.3,1.5-0.5,2.3-0.9
		c1.6-0.6,3.1-1.3,4.6-2.1c3-1.6,6-3.3,8.9-5.3C71.6,85.1,77.1,80.6,82.6,76z"/>

		<path d="M101.2,58.9c-1.4-1.2-2.8-2.4-4.1-3.5c-1.4-1.1-2.8-2.2-4.2-3.2c-1.4-1-2.8-2-4.3-2.9c-1.5-0.9-2.9-1.8-4.4-2.6
		c-1.5-0.8-3-1.5-4.5-2.3c-1.5-0.7-3.1-1.3-4.7-1.9c-1.6-0.6-3.2-1.1-4.8-1.6c-1.6-0.5-3.2-0.8-4.9-1.2l3.5-5.9
		c2.2,2.7,4.2,5.7,5.8,8.9c0.8,1.6,1.5,3.2,2.1,4.8c0.6,1.6,1.1,3.3,1.6,5c0.9,3.4,1.3,6.9,1.4,10.3c0,1.7,0,3.4-0.2,5.1
		c-0.2,1.7-0.5,3.4-0.9,5l-1.1-4.9c-0.4-1.6-0.8-3.2-1.3-4.8c-0.5-1.6-1-3.1-1.5-4.6c-0.6-1.5-1.1-3-1.8-4.4
		c-0.6-1.5-1.4-2.8-2.1-4.3c-0.7-1.4-1.5-2.8-2.3-4.1c-0.9-1.3-1.7-2.6-2.6-3.9c-0.9-1.2-1.9-2.5-2.8-3.7l-6.5-7.8l10,1.9
		c3.7,0.7,7.4,1.9,10.8,3.4c1.7,0.8,3.4,1.7,5,2.6c1.6,1,3.2,2,4.7,3.1c1.5,1.2,2.9,2.3,4.3,3.6c1.3,1.3,2.6,2.7,3.8,4.1
		c1.1,1.5,2.2,3,3.2,4.5l1.4,2.4L101.2,58.9z"/>

		<path d="M90.5,89c0,0-17.4,0.8-18,7C71.9,102.1,81,102.6,90.5,89z"/>

		<path d="M115.5,27.3c0,0,14.1,28.1,16.3,39S106,70.4,106,70.4S110.5,16.9,115.5,27.3z"/>

		<path class="st0" d="M7.2,120.1c0,0,18.9-5.7,10.3-14.8L6.6,105L7.2,120.1z"/>

		<path d="M181.4,113.4c12.8,0.9,25.7,4.2,37.5,10.1c5.9,3,11.5,6.6,16.6,10.9c2.6,2.1,5,4.5,7.3,7c1.1,1.3,2.1,2.5,3.4,4
		c1,1.3,1.9,2.5,2.9,3.9c4,5.9,6.9,12,9,18.6c2,6.6,3.1,13.5,3.2,20.5c0,7-1,14.1-3.4,20.8c-0.7,1.7-1.3,3.3-2,5l-1.2,2.4l-0.6,1.2
		l-0.2,0.3l-0.1,0.1l0,0.1l-0.2,0.3l-0.3,0.5c-0.9,1.4-1.7,2.7-2.7,4.1l-3.5,4.4c-4.6,5.4-10.1,10-15.9,13.7
		c-5.8,3.8-11.9,6.9-18.1,9.4c-6.2,2.6-12.5,4.7-18.8,6.6c-6.3,1.9-12.5,3.6-18.6,5.4c-12,3.6-23.9,7.4-34.3,13.1
		c-10.5,5.6-19.3,13.4-24.6,23.2l-8.1,15.1l-4.3-16c-1.1-3.9-2.2-7.7-2.7-11.7c-0.4-2-0.7-3.9-0.7-5.9c-0.1-2-0.3-4-0.3-5.9l0.1-5.9
		c0-2,0.4-3.9,0.5-5.9c0.2-2,0.5-3.9,0.9-5.8c0.4-1.9,0.7-3.9,1.2-5.7l1.6-5.6c0.6-1.9,1.3-3.7,2-5.5c0.6-1.8,1.4-3.6,2.3-5.4
		c0.9-1.7,1.5-3.6,2.5-5.2l2.9-5.1c1-1.7,2.1-3.2,3.2-4.8c1-1.6,2.2-3.1,3.5-4.6c1.3-1.5,2.4-3.1,3.8-4.4l4.1-4.2l4.4-3.8
		c1.4-1.3,3.1-2.3,4.6-3.5c1.6-1.1,3.1-2.2,4.9-3.1c1.7-0.9,3.3-1.9,5.1-2.8c1.6-0.8,3.5-1.6,5.2-2.3l10.3-4
		c3.4-1.3,6.7-2.7,9.8-4.4c3.1-1.6,6.2-3.5,8.8-5.8c2.7-2.3,5.1-5,6.9-8c1.8-3,3-6.5,3.4-10.2c0.3,3.7-0.4,7.5-1.9,10.9
		c-1.5,3.5-3.7,6.7-6.2,9.4c-2.6,2.8-5.5,5.2-8.7,7.4c-3.1,2.1-6.5,3.9-9.8,5.6l-9.8,5c-1.6,0.9-3.1,1.7-4.7,2.6l-4.3,2.9
		c-1.5,0.9-2.8,2-4.1,3.1c-1.3,1.1-2.7,2.1-3.9,3.4l-3.7,3.7l-3.3,4c-1.2,1.3-2,2.8-3.1,4.2c-1,1.4-2,2.8-2.8,4.3
		c-0.9,1.5-1.8,2.9-2.6,4.5l-2.3,4.6c-0.8,1.5-1.3,3.2-2,4.8c-0.7,1.6-1.3,3.2-1.7,4.9c-0.5,1.7-1.1,3.3-1.5,4.9l-1.1,5
		c-0.4,1.7-0.5,3.4-0.8,5.1c-0.3,1.7-0.5,3.4-0.6,5.1c-0.1,1.7-0.3,3.4-0.3,5.1l0.1,5.1c0,1.7,0.3,3.3,0.5,5
		c0.1,1.7,0.4,3.3,0.8,4.9c0.5,3.3,1.6,6.4,2.6,9.6l-12.5-0.9c3.2-6.5,7.6-12.4,12.8-17.3c5.2-4.9,11-8.9,17-12.3
		c12.1-6.7,24.7-11,37.4-14.5c6.2-1.7,12.4-3.3,18.4-5.1c6-1.8,11.9-3.7,17.6-6c5.7-2.3,11.2-4.8,16.2-7.8c5-3.1,9.7-6.6,13.5-10.9
		l2.6-3c0.9-1.2,1.8-2.6,2.7-3.9c0.5-0.8,1.3-2.3,2-3.5l1.8-3.8c2.2-5.3,3.4-11,3.7-16.8c0.3-5.8-0.3-11.8-1.7-17.6
		c-1.3-5.7-3.6-11.5-6.4-16.6c-0.7-1.3-1.7-2.7-2.5-4l-2.6-3.6c-1.9-2.4-3.9-4.7-6-6.9c-4.3-4.4-9.2-8.3-14.5-11.6
		C205.9,121.1,193.9,116.3,181.4,113.4z"/>

		<path d="M95.6,275.7c0,0-0.6,0-1.7,0c-1.1,0-2.8,0.2-5,0c-2.2-0.1-4.8-0.5-7.7-1c-1.5-0.4-3-0.8-4.7-1.2c-1.6-0.5-3.3-1.2-5.1-1.8
		c-3.4-1.5-7.1-3.2-10.7-5.7c-3.7-2.3-7.2-5.3-10.5-8.7c-3.3-3.4-6.4-7.3-9-11.7c-2.5-4.4-4.6-9.1-6-14c-1.2-4.8-2-10.2-2.1-15.1
		c0-5,0.6-10,1.7-14.6c1.1-4.6,2.6-9,4.5-12.9c1.8-4,4.1-7.4,6.2-10.4c1.2-1.5,2.3-2.9,3.4-4.2c1.2-1.2,2.3-2.4,3.4-3.4
		c2.2-2,4.3-3.7,6.1-4.9c1.7-1.3,3.3-2,4.2-2.6c1-0.6,1.5-0.9,1.5-0.9s-0.5,0.4-1.3,1.2c-0.8,0.8-2.1,1.8-3.5,3.4
		c-1.5,1.5-3.1,3.4-5,5.6c-0.8,1.2-1.7,2.4-2.7,3.7c-0.9,1.4-1.7,2.8-2.7,4.3c-1.7,3.1-3.4,6.5-4.7,10.3c-1.5,3.7-2.4,7.8-3.3,12
		c-0.8,4.3-0.9,8.7-0.9,13.2c0.2,4.5,0.8,8.8,2.1,13.4c1.2,4.4,3,8.6,5.1,12.5c2.3,3.9,4.7,7.6,7.6,10.8c2.9,3.2,5.8,6.2,9,8.6
		c3.1,2.5,6.3,4.5,9.3,6.3c1.6,0.8,3.1,1.6,4.5,2.3c1.5,0.6,2.9,1.2,4.2,1.8c2.7,1,5.1,1.8,7.1,2.3c2,0.6,3.7,0.8,4.8,1.1
		C95,275.6,95.6,275.7,95.6,275.7z"/>

		<path d="M156.5,203c-3.4,2.6-6.3,5.7-8.7,8.9c-1.2,1.7-2.3,3.4-3.2,5.2c-0.9,1.8-1.7,3.6-2.4,5.5l-3.8-3c3.5-2.8,7.5-5,11.7-6.4
		c4.2-1.4,8.5-2.3,12.8-2.7c8.6-0.9,16.8-0.7,25.1-0.8l7.7-0.1l-5,5.8c-1.9,2.2-3.8,4.3-5.7,6.5c-1.9,2.2-3.8,4.3-5.8,6.4
		c-3.9,4.3-7.9,8.5-12,12.6l-1.3-2.7c4.7,0.3,9.4,0.6,14.1,1.2c-4.7,0.9-9.3,1.5-14,2.1l-3.5,0.4l2.2-3.1c3.3-4.8,6.7-9.5,10.2-14.1
		c1.7-2.3,3.5-4.6,5.3-6.9c1.8-2.3,3.5-4.6,5.3-6.8l2.8,5.7l-12.4,0.4c-4.1,0.1-8.2,0.1-12.2,0.4c-4,0.3-7.9,0.7-11.7,1.7
		c-3.7,0.9-7.3,2.3-10.6,4.4l-7.9,5l4.1-8.1c2.1-4,4.7-7.7,8-10.7C148.7,206.9,152.5,204.5,156.5,203z"/>

		<path d="M105.3,75.1c0-5.5,0.2-10.9,0.5-16.4c0.3-5.4,0.5-10.9,1-16.3c0.4-5.4,0.7-10.9,1.3-16.3c0.5-5.4,0.9-10.9,1.5-16.3
		l1.1-9.8l7,7.3c4.4,4.6,8.7,9.2,12.8,14c4.1,4.8,8.1,9.7,12,14.7c2,2.5,3.9,5,5.7,7.6l5.4,7.7c3.6,5.2,7.1,10.5,10.3,16
		c3.2,5.5,6.4,11,9.2,16.7c2.8,5.7,5.5,11.4,7.8,17.3c1.2,2.9,2.3,5.9,3.4,8.9c1.1,3,2,6,2.9,9c0.9,3,1.7,6.1,2.4,9.2
		c0.8,3,1.3,6.2,1.9,9.3c-5.2-11.5-10.7-22.6-16.7-33.5l-4.6-8.1c-1.5-2.7-3.1-5.3-4.8-7.9l-4.9-7.8c-1.7-2.6-3.3-5.2-5.1-7.7
		l-5.2-7.6c-1.8-2.5-3.5-5.1-5.3-7.6l-5.5-7.5l-5.5-7.4c-3.7-4.9-7.5-9.8-11.4-14.6c-3.8-4.8-7.8-9.6-11.8-14.3l8.1-2.5
		c-0.9,5.4-2,10.7-2.9,16.1c-1,5.4-2.1,10.7-3.2,16c-1,5.3-2.3,10.7-3.5,16C108,64.5,106.7,69.8,105.3,75.1z"/>
	</g>
</svg>