<svg xmlns="http://www.w3.org/2000/svg" width="960px" height="960px" viewBox="0 0 960 960">
	<g fill="none" fill-rule="evenodd">
		<path fill="#E6E8EA" d="M480 960C214.903 960 0 745.097 0 480S214.903 0 480 0s480 214.903 480 480-214.903 480-480 480zm0-180c165.685 0 300-134.315 300-300S645.685 180 480 180 180 314.315 180 480s134.315 300 300 300z"/>

		<path fill="#33A1FD" fill-rule="nonzero" d="M235.134 780.22c-44.673-44.585-74.125-95.615-90.68-157.116a149.326 149.326 0 0 1-2.02-8.463 12 12 0 0 1 5.741-12.827c40.333-23.325 71.856-40.59 94.567-51.798l26.123-12.89-23.373.76c-35 1.14-78.776 6.693-112.74 14.303l-1.444.324a12 12 0 0 0-9.374 11.93l.158 8.628c1.436 78.234 29.32 155.12 78.154 215.491a1.18 1.18 0 0 1-1.723 1.604c-5.051-4.724-10.903-10.57-17.554-17.538-36.26-37.992-57.808-67.617-77.846-107.026C77.517 615.24 63.47 563.05 60.211 506.18l-.163-2.837a6.112 6.112 0 0 1 5.257-6.403c21.804-3.046 123.598-7.615 172.626-7.748 26.645-.072 29.085-.268 24.747-1.983-2.646-1.046-16.258-6.316-30.247-11.71-36.435-14.051-56.094-22.039-77.84-31.628-22.833-10.068-70.586-34.09-87.832-44.181-14.905-8.722-14.738-8.144-9.636-33.41 10.853-53.74 32.4-100.295 65.863-142.303 12.562-15.77 48.621-52.717 57.2-58.609a.867.867 0 0 1 1.168 1.256l-.155.194c-9.68 12.113-26.713 39.106-33.308 52.784-14.932 30.963-22.757 58.393-28.774 100.862-1.585 11.188-2.428 19.647-2.529 25.377a12 12 0 0 0 5.577 10.348 831.59 831.59 0 0 0 15.4 9.523c24.692 14.896 68.245 36.218 96.24 47.116 25.741 10.02 60.462 22.025 61.295 21.194.305-.305-3.616-3.868-8.715-7.917-12.33-9.79-44.025-36.892-44.579-38.117-.241-.533-2.604-2.72-5.25-4.858-12.307-9.946-38.138-37.47-77.492-82.57a12 12 0 0 1-1.962-12.678c7.551-17.353 13.673-30.103 18.364-38.25 36.8-63.906 84.34-105.946 154.58-136.698 8.694-3.806 27.277-10.022 55.749-18.649a1.34 1.34 0 0 1 .963 2.494c-31.934 15.146-68.425 43.761-92.833 72.796-24.872 29.587-50.303 72.685-61.175 103.671l-1.977 5.636a12 12 0 0 0 1.171 10.371l.29.46c10.86 17.23 37.597 44.461 59.316 60.41 7.784 5.716 28.931 19.244 39.872 25.507 18.35 10.502 74.533 31.092 75.854 29.756.287-.29-49.144 155.728-49.37 155.503-1.072-1.07-52.464 18.088-67.695 27.088-26.126 15.436-51.942 34.565-70.358 52.133a7.712 7.712 0 0 0-1.928 8.205l3.017 8.33c6.902 19.066 19.038 47.023 26.22 60.406 9.33 17.386 26.732 44.692 35.417 55.577 14.91 18.685 16.649 20.705 28.22 32.763 30.326 31.604 71.74 60.95 114.638 81.232a1.623 1.623 0 0 1-1.21 3.006c-1.122-.376-2.25-.759-3.386-1.147-80.269-27.414-139.018-61.663-185.707-108.261zM724.872 780.22c44.673-44.585 74.125-95.615 90.68-157.116.768-2.851 1.442-5.672 2.02-8.463a12 12 0 0 0-5.741-12.827c-40.333-23.325-71.855-40.59-94.567-51.798l-26.123-12.89 23.373.76c35 1.14 78.776 6.693 112.74 14.303l1.445.324a12 12 0 0 1 9.374 11.93l-.159 8.628c-1.436 78.234-29.32 155.12-78.153 215.491a1.18 1.18 0 0 0 1.722 1.604c5.052-4.724 10.903-10.57 17.554-17.538 36.26-37.992 57.809-67.617 77.846-107.026 25.606-50.362 39.654-102.551 42.912-159.422l.163-2.837a6.112 6.112 0 0 0-5.257-6.403c-21.803-3.046-123.598-7.615-172.625-7.748-26.645-.072-29.085-.268-24.748-1.983 2.647-1.046 16.258-6.316 30.247-11.71 36.436-14.051 56.094-22.039 77.84-31.628 22.833-10.068 70.586-34.09 87.832-44.181 14.905-8.722 14.738-8.144 9.636-33.41-10.852-53.74-32.4-100.295-65.862-142.303-12.563-15.77-48.622-52.717-57.2-58.609a.867.867 0 0 0-1.169 1.256l.155.194c9.68 12.113 26.713 39.106 33.309 52.784 14.931 30.963 22.757 58.393 28.773 100.862 1.585 11.188 2.428 19.647 2.529 25.377a12 12 0 0 1-5.577 10.348 831.593 831.593 0 0 1-15.4 9.523c-24.691 14.896-68.244 36.218-96.24 47.116-25.74 10.02-60.462 22.025-61.294 21.194-.306-.305 3.616-3.868 8.714-7.917 12.33-9.79 44.026-36.892 44.58-38.117.24-.533 2.603-2.72 5.25-4.858 12.307-9.946 38.138-37.47 77.492-82.57a12 12 0 0 0 1.961-12.678c-7.551-17.353-13.672-30.103-18.364-38.25-36.8-63.906-84.34-105.946-154.58-136.698-8.694-3.806-27.277-10.022-55.749-18.649a1.34 1.34 0 0 0-.963 2.494c31.934 15.146 68.425 43.761 92.833 72.796 24.872 29.587 50.304 72.685 61.175 103.671l1.977 5.636a12 12 0 0 1-1.171 10.371l-.29.46c-10.86 17.23-37.597 44.461-59.316 60.41-7.784 5.716-28.93 19.244-39.871 25.507-18.35 10.502-74.533 31.092-75.854 29.756-.287-.29 49.143 155.728 49.37 155.503 1.071-1.07 52.463 18.088 67.695 27.088 26.125 15.436 51.942 34.565 70.357 52.133a7.712 7.712 0 0 1 1.928 8.205l-3.016 8.33c-6.903 19.066-19.039 47.023-26.22 60.406-9.332 17.386-26.733 44.692-35.418 55.577-14.909 18.685-16.649 20.705-28.22 32.763-30.325 31.604-71.739 60.95-114.637 81.232a1.623 1.623 0 0 0 1.21 3.006c1.122-.376 2.25-.759 3.386-1.147 80.268-27.414 139.017-61.663 185.706-108.261z"/>

		<path fill="#33A1FD" d="M529.52 317.517C520.507 323.207 516 329.367 516 336c0 13.255 10.745 24 24 24 7.208 0 14.38-5.51 21.518-16.53a1.2 1.2 0 0 1 2.207.637l.826 64.344C604.184 520.197 624 595.047 624 633c0 109.442-46.193 187.548-138.58 234.318a12 12 0 0 1-10.84 0C382.193 820.548 336 742.442 336 633c0-37.887 19.768-112.569 59.305-224.045l.962-64.862a1.2 1.2 0 0 1 2.207-.635C405.614 354.486 412.789 360 420 360c13.255 0 24-10.745 24-24 0-6.632-4.507-12.793-13.52-18.483-5.604-3.538-7.28-10.949-3.742-16.553l.072-.112c10.73-16.589 20.566-27.012 29.507-31.269A29.87 29.87 0 0 0 450 288c0 16.569 13.431 30 30 30 16.569 0 30-13.431 30-30a29.87 29.87 0 0 0-6.317-18.417c8.94 4.257 18.776 14.68 29.507 31.269 3.6 5.565 2.007 12.994-3.558 16.593l-.112.072z"/>

		<path fill="#99D0FE" fill-rule="nonzero" d="M523.985 502.896h-87.97L480 429.176l43.985 73.72zm21.48 36L582 600.132H378l36.536-61.236h130.928z"/>
	</g>
</svg>