<svg width="295" height="295" viewBox="0 0 295 295" fill="none" xmlns="http://www.w3.org/2000/svg">
<path d="M147.4 0C228.8 0 294.9 66 294.9 147.4C294.9 228.8 228.9 294.8 147.4 294.8C66.0004 294.8 -0.0996094 228.8 -0.0996094 147.4C-0.0996094 66 66.0004 0 147.4 0Z" fill="#6BD5FF"/>
<path d="M61.1998 207.2C61.1998 205.4 60.7998 203.8 59.8998 202.5C58.8998 201.1 57.4998 200.3 55.7998 200.3C54.0998 200.3 52.5998 201 51.5998 202.5C50.6998 203.7 50.2998 205.4 50.2998 207.2C50.2998 209.1 50.6998 210.6 51.5998 211.9C52.5998 213.3 53.9998 214.1 55.7998 214.1C57.4998 214.1 58.9998 213.4 59.8998 211.9C60.5998 210.6 61.1998 209 61.1998 207.2ZM69.1998 207.2C69.1998 211.3 67.9998 214.8 65.4998 217.6C62.8998 220.5 59.5998 222 55.4998 222C51.3998 222 48.0998 220.6 45.4998 217.6C42.9998 214.8 41.7998 211.3 41.7998 207.2C41.7998 203.1 42.9998 199.7 45.4998 196.8C48.0998 193.9 51.3998 192.5 55.4998 192.5C59.5998 192.5 62.8998 193.9 65.4998 196.8C67.8998 199.7 69.1998 203.1 69.1998 207.2Z" fill="white"/>
<path d="M90.4002 207.2C90.4002 205.4 90.0002 203.8 89.1002 202.5C88.1002 201.1 86.7002 200.3 85.0002 200.3C83.3002 200.3 81.8002 201 80.9002 202.5C80.0002 203.7 79.6002 205.4 79.6002 207.2C79.6002 209.1 80.0002 210.6 81.0002 211.9C82.0002 213.3 83.4002 214.1 85.1002 214.1C86.8002 214.1 88.3002 213.4 89.2002 211.9C90.0002 210.6 90.4002 209 90.4002 207.2ZM98.5002 207.2C98.5002 211 97.4002 214.4 95.2002 217.3C92.8002 220.5 89.7002 222 86.0002 222C83.4002 222 81.2002 221.2 79.3002 219.7C79.3002 220 79.3002 220.9 79.4002 222.3C79.5002 223.7 79.5002 224.8 79.5002 225.6C79.5002 230.4 78.1002 232.8 75.2002 232.8C74.1002 232.8 73.0002 232.4 72.3002 231.6C71.6002 230.8 71.2002 229.8 71.2002 228.6V197.3C71.2002 196.2 71.6002 195.1 72.3002 194.3C73.1002 193.5 74.0002 193.1 75.2002 193.1C76.9002 193.1 78.2002 193.9 79.0002 195.7C80.6002 193.6 83.0002 192.6 86.0002 192.6C89.7002 192.6 92.8002 194.1 95.1002 197.2C97.4002 200.1 98.5002 203.4 98.5002 207.2Z" fill="white"/>
<path d="M119.8 204.3C119.8 203.1 119.2 201.9 118.1 200.9C117 199.9 115.8 199.4 114.6 199.4C113.4 199.4 112.1 199.9 111 200.9C109.9 201.9 109.4 203.1 109.4 204.3H119.8ZM127.9 206.3C127.9 207.6 127.6 208.6 127 209.1C126.4 209.6 125.4 209.9 124 209.9H109.4C109.4 211.4 110.1 212.7 111.6 213.5C112.7 214.1 114.2 214.5 115.9 214.5C117.2 214.5 118.8 214.1 120.6 213.2C122.5 212.3 123.6 211.9 124.2 211.9C125.1 211.9 125.9 212.2 126.6 212.9C127.2 213.6 127.6 214.4 127.6 215.4C127.6 217.7 126 219.3 122.7 220.5C120.1 221.4 117.6 221.9 115 221.9C110.8 221.9 107.4 220.5 104.8 217.7C102.2 214.9 100.9 211.4 100.9 207.1C100.9 203.1 102.2 199.6 105 196.7C107.7 193.8 111.1 192.4 115.1 192.4C118.8 192.4 122 193.7 124.5 196.5C126.7 199.3 127.9 202.5 127.9 206.3Z" fill="white"/>
<path d="M155.1 217.2C155.1 218.3 154.7 219.4 154 220.2C153.2 221 152.3 221.4 151.1 221.4C148.2 221.4 146.9 219.1 146.9 214.7C146.9 213.9 147 212.4 147.1 210.6C147.2 208.8 147.3 207.4 147.3 206.5C147.3 201.8 145.8 199.4 142.7 199.4C139.6 199.4 138.1 201.8 138.1 206.5C138.1 207.3 138.2 208.8 138.2 210.6C138.3 212.5 138.3 213.8 138.3 214.7C138.3 219.2 136.9 221.4 134.2 221.4C133.1 221.4 132 221 131.3 220.2C130.5 219.4 130.2 218.4 130.2 217.2V197.3C130.2 196.2 130.6 195.1 131.3 194.3C132 193.5 133 193.1 134.2 193.1C136.2 193.1 137.5 193.9 138.2 195.7C139.5 193.6 141.8 192.6 145.2 192.6C148.3 192.6 150.7 193.4 152.5 195.1C154.4 196.8 155.3 199.2 155.3 202.2L155.1 217.2Z" fill="white"/>
<path d="M180.4 216.3C180.4 218.1 179.3 219.6 176.8 220.6C174.9 221.4 172.9 221.9 170.8 222C166.7 222 163.4 220.6 160.8 217.6C158.3 214.8 157.1 211.3 157.1 207.2C157.1 203.1 158.3 199.6 160.9 196.8C163.4 193.9 166.7 192.5 170.8 192.5C173.2 192.5 175.2 192.8 176.9 193.5C179.3 194.4 180.4 195.9 180.4 197.8C180.4 198.8 180.1 199.6 179.5 200.5C178.9 201.2 178.1 201.6 177.1 201.6C176.5 201.6 175.5 201.4 174.2 201C173 200.6 171.9 200.4 171.2 200.4C169.2 200.4 167.8 201.1 166.7 202.5C165.7 203.7 165.2 205.4 165.2 207.2C165.2 209.1 165.6 210.6 166.6 211.9C167.6 213.3 169 214.2 170.8 214.2C171.6 214.2 172.6 214 174.1 213.5C175.5 213.1 176.5 212.8 177.1 212.8C178 212.8 178.7 213.2 179.5 213.9C180.1 214.6 180.5 215.5 180.4 216.3Z" fill="white"/>
<path d="M201.7 207.2C201.7 205.4 201.3 203.8 200.4 202.5C199.4 201.1 197.9 200.3 196.2 200.3C194.5 200.3 193 201 192 202.5C191.1 203.7 190.7 205.4 190.7 207.2C190.7 209.1 191.1 210.6 192.1 211.9C193.1 213.3 194.6 214.1 196.3 214.1C198.1 214.1 199.5 213.4 200.4 211.9C201.3 210.6 201.7 209 201.7 207.2ZM209.9 217.2C209.9 218.3 209.5 219.4 208.8 220.2C208 221 207.1 221.4 205.9 221.4C204.2 221.4 202.9 220.6 202.1 218.8C200.5 220.9 198.1 221.9 195.1 221.9C191.3 221.9 188.3 220.4 185.8 217.2C183.6 214.3 182.5 211 182.5 207.1C182.5 203.3 183.5 199.9 185.8 197C188.2 193.9 191.3 192.4 195.1 192.4C198.1 192.4 200.4 193.4 202.1 195.5C202.8 193.8 204.2 192.9 205.9 192.9C207 192.9 208 193.3 208.8 194.1C209.6 194.9 209.9 196 209.9 197.1V217.2Z" fill="white"/>
<path d="M230.4 196.7C230.4 198.4 229.6 199.6 227.8 200.3C226.3 200.8 224.7 201.3 223.2 202C221.5 202.9 220.6 204.8 220.6 207.3V217.3C220.6 218.4 220.2 219.5 219.5 220.3C218.7 221.1 217.8 221.5 216.6 221.5C215.5 221.5 214.4 221.1 213.7 220.3C212.9 219.5 212.6 218.5 212.6 217.3V197.4C212.6 196.3 213 195.2 213.7 194.4C214.4 193.6 215.4 193.2 216.6 193.2C218.6 193.2 219.9 194 220.6 195.8C222.3 193.7 224.2 192.7 226.2 192.7C227.3 192.7 228.4 193.1 229.1 193.9C230.1 194.6 230.4 195.6 230.4 196.7Z" fill="white"/>
<path d="M251.6 197.1C251.6 198.8 250.9 200 249.5 200.5C248.8 200.7 247.3 200.9 245.2 200.9V217.2C245.2 218.3 244.8 219.4 244.1 220.2C243.3 221 242.4 221.4 241.2 221.4C240 221.4 239.1 221 238.3 220.2C237.5 219.4 237.2 218.4 237.2 217.2V200.9C235.6 200.9 234.3 200.7 233.6 200.3C232.6 199.7 232.1 198.7 232.1 197.1C232.1 195.6 232.6 194.5 233.7 194C234.4 193.6 235.7 193.4 237.3 193.4V191.7V189.9C237.3 185.8 238.6 183.8 241.3 183.8C244 183.8 245.3 185.9 245.3 189.9V191.7V193.3C247.5 193.3 248.9 193.4 249.6 193.7C250.9 194.2 251.6 195.3 251.6 197.1Z" fill="white"/>
<path d="M158.3 183.5H157.2V185.6H158.3C158.9 185.6 159.3 185.5 159.6 185.4C159.8 185.3 160 185 160 184.6C160 184.3 159.9 184 159.6 183.9C159.4 183.6 158.9 183.5 158.3 183.5ZM158.4 183C159.2 183 159.8 183.1 160.1 183.4C160.5 183.6 160.6 184 160.6 184.5C160.6 184.9 160.5 185.2 160.2 185.5C160 185.7 159.6 185.9 159.3 185.9L160.5 188.6H159.7L158.5 186.1H157.2V188.6H156.4V182.9L158.4 183ZM162.7 185.9C162.7 185.3 162.6 184.8 162.4 184.3C162.2 183.8 161.9 183.3 161.5 182.9C161.1 182.5 160.6 182.2 160.1 182C159.6 181.8 159.1 181.7 158.5 181.7C157.9 181.7 157.4 181.8 156.9 182C156.4 182.2 155.9 182.5 155.5 182.9C155.1 183.3 154.8 183.8 154.6 184.3C154.4 184.8 154.3 185.4 154.3 185.9C154.3 186.4 154.4 187 154.6 187.5C154.8 188 155.1 188.5 155.5 188.9C155.9 189.3 156.4 189.6 156.9 189.8C157.4 190 157.9 190.1 158.5 190.1C159.1 190.1 159.6 190 160.1 189.8C160.6 189.6 161.1 189.3 161.5 188.9C161.9 188.5 162.2 188.1 162.4 187.5C162.6 187 162.7 186.5 162.7 185.9ZM158.3 181.1C158.9 181.1 159.5 181.2 160.2 181.5C160.8 181.7 161.3 182.1 161.7 182.5C162.1 182.9 162.5 183.4 162.7 184C162.9 184.6 163.1 185.2 163.1 185.8C163.1 186.4 163 187 162.7 187.6C162.5 188.2 162.1 188.6 161.7 189.1C161.2 189.5 160.7 189.9 160.1 190.1C159.5 190.3 158.9 190.5 158.2 190.5C157.6 190.5 157 190.4 156.3 190.1C155.7 189.9 155.2 189.5 154.8 189.1C154.4 188.7 154 188.1 153.8 187.6C153.6 187 153.4 186.4 153.4 185.8C153.4 185.2 153.5 184.6 153.8 184C154.1 183.4 154.4 182.9 154.8 182.5C155.2 182.1 155.7 181.7 156.3 181.5C157 181.2 157.6 181.1 158.3 181.1Z" fill="white"/>
<path d="M91 62.1C108.3 80.3 124.4 82.9 188 82.9C251.6 82.9 223.7 97.1 184.4 132.1C196.8 110.4 239.6 91.3 169.5 92.4C102.2 93.5 98.3 73 91 62.1Z" fill="white"/>
<path d="M136.2 149.4C136.2 154.7 131.9 159 126.6 159C121.3 159 116.9 154.7 116.9 149.4C116.9 144.1 121.2 139.7 126.6 139.7C132 139.8 136.2 144.2 136.2 149.4Z" fill="white"/>
<path d="M180 149.4C180 154.7 175.7 159 170.4 159C165.1 159 160.7 154.7 160.7 149.4C160.7 144.1 165 139.7 170.4 139.7C175.8 139.8 180 144.2 180 149.4Z" fill="white"/>
</svg>
