<svg xmlns="http://www.w3.org/2000/svg" viewBox="0 0 95 35" width="95" height="35">
	<style>
		tspan { white-space:pre }
		.shp0 { fill: #e32124 } 
		.shp1 { fill: #fefefe } 
	</style>
	<g id="Layer">
		<path id="Layer" class="shp0" d="M94.32 0L0 0L0 34.5L94.32 34.5L94.32 0Z" />
		<path id="Layer" fill-rule="evenodd" class="shp1" d="M81.21 13.88C81.21 13.34 81.64 12.91 82.17 12.91C82.71 12.91 83.14 13.34 83.14 13.88C83.14 14.41 82.71 14.85 82.17 14.85C81.64 14.85 81.21 14.41 81.21 13.88ZM82.17 14.64C82.59 14.64 82.94 14.29 82.94 13.88C82.94 13.46 82.6 13.11 82.17 13.11C81.75 13.11 81.41 13.46 81.41 13.88C81.41 14.29 81.76 14.64 82.17 14.64ZM82.08 13.31C82.23 13.31 82.3 13.31 82.36 13.34C82.56 13.4 82.58 13.58 82.58 13.64C82.58 13.65 82.58 13.69 82.57 13.73C82.56 13.77 82.54 13.85 82.43 13.92C82.41 13.93 82.41 13.93 82.38 13.94L82.63 14.4L82.39 14.4L82.17 13.98L82.03 13.98L82.03 14.4L81.81 14.4L81.81 13.31L82.08 13.31ZM82.17 13.8C82.24 13.8 82.31 13.8 82.35 13.73C82.36 13.7 82.37 13.67 82.37 13.64C82.37 13.58 82.34 13.53 82.29 13.5C82.24 13.48 82.19 13.48 82.08 13.48L82.03 13.48L82.03 13.79L82.17 13.79L82.17 13.8ZM74.66 20.04L80.64 20.04L79.67 21.56L74.55 21.56C72.16 21.56 70.23 19.63 70.23 17.25C70.23 14.87 72.16 12.94 74.55 12.94L80.51 12.94L79.54 14.46L74.66 14.46C73.39 14.46 72.3 15.33 71.98 16.5L80.05 16.5L79.07 18.02L71.99 18.02C72.32 19.19 73.39 20.05 74.67 20.05L74.66 20.04ZM54.38 21.57C52 21.57 50.07 19.64 50.07 17.26C50.07 14.88 52 12.95 54.38 12.95L60.34 12.95L59.36 14.47L54.48 14.47C52.94 14.47 51.69 15.72 51.69 17.26C51.69 18.8 52.94 20.05 54.48 20.05L60.46 20.05L59.48 21.57L54.38 21.57ZM17.98 21.57C15.59 21.57 13.66 19.64 13.66 17.26C13.66 14.88 15.59 12.95 17.98 12.95L22.99 12.95C25.37 12.95 27.3 14.88 27.3 17.26C27.3 19.64 25.37 21.57 22.99 21.57L17.98 21.57ZM22.88 20.05C24.42 20.05 25.68 18.8 25.68 17.26C25.68 15.72 24.43 14.47 22.88 14.47L18.09 14.47C16.55 14.47 15.3 15.72 15.3 17.26C15.3 18.8 16.55 20.05 18.09 20.05L22.88 20.05ZM34.67 18.78L38 21.57L35.59 21.57L30.65 17.25L35.33 17.25C36.09 17.25 36.72 16.63 36.72 15.86C36.72 15.09 36.09 14.46 35.33 14.46L29.84 14.46L29.84 21.57L28.18 21.57L28.18 12.94L35.44 12.94C37.06 12.94 38.36 14.25 38.36 15.86C38.36 17.47 37.06 18.78 35.44 18.78L34.67 18.78ZM62.89 20.06L70.63 20.06L69.65 21.58L62.08 21.58C61.85 21.58 61.63 21.48 61.47 21.33C61.31 21.17 61.23 20.97 61.23 20.75L61.23 12.95L62.88 12.95L62.88 20.05L62.89 20.06ZM42.58 18.53L47.01 18.53L44.67 14.76L40.37 21.58L38.42 21.58L43.64 13.4C43.87 13.07 44.25 12.87 44.67 12.87C45.07 12.87 45.45 13.06 45.68 13.38L50.92 21.58L48.96 21.58L48.04 20.06L43.56 20.06L42.58 18.54L42.58 18.53Z" />
	</g>
</svg>