<svg xmlns="http://www.w3.org/2000/svg" width="23.391" height="23.391" viewBox="0 0 23.391 23.391">
	<path d="M11.7,0h-.006A11.688,11.688,0,0,0,2.226,18.55L.769,22.9l4.5-1.437A11.693,11.693,0,1,0,11.7,0ZM18.5,16.515a3.3,3.3,0,0,1-2.3,1.651c-.611.13-1.409.234-4.1-.88a14.651,14.651,0,0,1-5.823-5.143A6.68,6.68,0,0,1,4.9,8.615,3.734,3.734,0,0,1,6.1,5.769a1.7,1.7,0,0,1,1.2-.42c.145,0,.275.007.392.013.344.015.516.035.743.577C8.709,6.62,9.4,8.3,9.478,8.47a.7.7,0,0,1,.05.633,2.021,2.021,0,0,1-.379.537c-.173.2-.336.351-.509.564-.158.186-.336.384-.137.728a10.381,10.381,0,0,0,1.9,2.358,8.6,8.6,0,0,0,2.743,1.691.739.739,0,0,0,.825-.13,14.151,14.151,0,0,0,.914-1.21.653.653,0,0,1,.839-.254c.316.11,1.987.936,2.33,1.107s.57.254.653.4A2.913,2.913,0,0,1,18.5,16.515Z"/>
</svg>
