<svg xmlns="http://www.w3.org/2000/svg" width="23" height="23.003" viewBox="0 0 23 23.003">
  <path id="Path_514" data-name="Path 514" d="M365.316,32.88a10.884,10.884,0,0,0-12.579-12.966A6.365,6.365,0,0,0,343,25.22a6.18,6.18,0,0,0,.873,3.17,10.887,10.887,0,0,0,12.744,12.8C362.05,44.059,368.054,38.329,365.316,32.88ZM358,37.389a9.928,9.928,0,0,1-7.349-.217c-2.865-1.528-3.375-4.968-.9-4.968,1.863,0,1.273,2.172,3.155,3.058a4.563,4.563,0,0,0,3.8-.287,1.493,1.493,0,0,0,.389-2.371c-1.535-1.417-5.926-.854-7.934-3.335a3.607,3.607,0,0,1,.035-4.351c1.869-2.4,7.353-2.551,9.711-.735,2.177,1.685,1.589,3.921-.168,3.921-2.113,0-1-2.765-4.414-2.765-2.473,0-3.446,1.759-1.7,2.615,2.361,1.173,8.377.781,8.377,5.364A4.358,4.358,0,0,1,358,37.389Z" transform="translate(-343 -18.95)"/>
</svg>
