<svg xmlns="http://www.w3.org/2000/svg" viewBox="0 0 240 240" width="240" height="240">
	<defs>
		<linearGradient id="grd1" gradientUnits="userSpaceOnUse" x1="160.009" y1="40.009" x2="100.009" y2="180">
			<stop offset="0" stop-color="#37aee2" />
			<stop offset="1" stop-color="#1e96c8" />
		</linearGradient>
	</defs>

	<style>
		tspan { white-space:pre }
		.shp0 { fill: url(#grd1) } 
		.shp1 { fill: #ffffff } 
	</style>

	<g>
		<path class="shp0" d="M120 240C53.64 240 0 186.36 0 120C0 53.64 53.64 0 120 0C186.36 0 240 53.64 240 120C240 186.36 186.36 240 120 240Z" />
		<path class="shp1" d="M49.94 118.96L130.75 85.66C138.73 82.2 165.78 71.1 165.78 71.1C165.78 71.1 178.27 66.24 177.23 78.03C176.88 82.89 174.1 99.88 171.33 118.27L162.66 172.72C162.66 172.72 161.96 180.69 156.07 182.08C150.17 183.47 140.46 177.23 138.73 175.84C137.34 174.8 112.72 159.19 103.7 151.56C101.27 149.48 98.5 145.32 104.05 140.46C116.53 129.02 131.44 114.8 140.46 105.78C144.62 101.62 148.79 91.91 131.44 103.7L82.54 136.65C82.54 136.65 76.99 140.12 66.59 136.99C56.18 133.87 44.05 129.71 44.05 129.71C44.05 129.71 35.72 124.51 49.94 118.96L49.94 118.96Z" />
	</g>
</svg>