<svg width="231" height="231" viewBox="0 0 231 231" fill="none" xmlns="http://www.w3.org/2000/svg">
<path d="M115.2 0.400024C51.7002 0.400024 0.200195 51.9 0.200195 115.4C0.200195 178.9 51.7002 230.4 115.2 230.4C178.7 230.4 230.2 178.9 230.2 115.4C230.2 51.9 178.7 0.400024 115.2 0.400024ZM115.2 221.1C56.8002 221.1 9.4002 173.7 9.4002 115.3C9.4002 56.9 56.8002 9.50002 115.2 9.50002C173.6 9.50002 221 56.9 221 115.3C221 173.8 173.6 221.1 115.2 221.1Z" fill="black"/>
<path d="M118.601 128H139.301V169.4H148.501V128H169.201V118.8H118.601V128Z" fill="black"/>
<path d="M106.4 117.7L86.5 137.6L66.5 117.7L60 124.2L80 144.1L60 164L66.5 170.5L86.5 150.6L106.4 170.5L112.9 164L93 144.1L112.9 124.2L106.4 117.7Z" fill="black"/>
<path d="M143.4 111.9C157.7 111.9 169.3 100.3 169.3 86.0001H160C160 95.2001 152.5 102.7 143.3 102.7C140.7 102.7 138.2 102.1 136 101L158.3 78.7001L165 72.0001C160.4 64.9001 152.4 60.2001 143.3 60.2001C129 60.2001 117.4 71.8001 117.4 86.1001C117.5 100.3 129.1 111.9 143.4 111.9ZM143.4 69.4001C146.6 69.4001 149.6 70.3001 152.2 71.9001L129.2 94.9001C127.6 92.3001 126.7 89.3001 126.7 86.1001C126.7 76.8001 134.2 69.4001 143.4 69.4001Z" fill="black"/>
<path d="M86.5 83.3001L67.1 60.2001L60 66.1001L81.9 92.1001V111.9H91.1V92.1001L112.9 66.1001L105.9 60.2001L86.5 83.3001Z" fill="black"/>
</svg>
